<svg xmlns="http://www.w3.org/2000/svg" fill="none" viewBox="0 0 790 790" height="790" width="790">
<circle fill="black" r="395" cy="395" cx="395"></circle>
<path fill="black" d="M394.995 76C218.816 76 76 218.814 76 395C76 571.186 218.816 714 394.995 714C571.173 714 714 571.175 714 395C714 218.825 571.173 76 394.995 76ZM394.995 655.174C251.528 655.174 134.816 538.464 134.816 395C134.816 251.536 251.528 134.826 394.995 134.826C538.461 134.826 655.173 251.536 655.173 395C655.173 538.464 538.461 655.174 394.995 655.174Z"></path>
<g clip-path="url(#clip0_13_85)">
<path fill="white" d="M395.004 76C218.824 76 76 218.824 76 395.004C76 571.184 218.824 714.008 395.004 714.008C571.184 714.008 714.008 571.184 714.008 395.004C714.008 218.824 571.184 76 395.004 76ZM395.004 655.184C251.542 655.184 134.824 538.467 134.824 395.004C134.824 251.542 251.533 134.824 395.004 134.824C538.475 134.824 655.184 251.542 655.184 395.004C655.184 538.467 538.467 655.184 395.004 655.184Z"></path>
<path fill="white" d="M424.941 365.059H365.059V424.941H424.941V365.059Z"></path>
<path fill="white" d="M424.941 270.511H365.059V330.393H424.941V270.511Z"></path>
<path fill="white" d="M424.941 175.971H365.059V235.854H424.941V175.971Z"></path>
</g>
<defs>
<clipPath id="clip0_13_85">
<rect transform="translate(76 76)" fill="white" height="638" width="638"></rect>
</clipPath>
</defs>
</svg>
